<?xml version="1.0" standalone="yes"?>

<svg version="1.1" viewBox="0.0 0.0 100.71653543307086 100.23884514435696" fill="none" stroke="none" stroke-linecap="square" stroke-miterlimit="10" xmlns="http://www.w3.org/2000/svg" xmlns:xlink="http://www.w3.org/1999/xlink"><clipPath id="p.0"><path d="m0 0l100.71654 0l0 100.238846l-100.71654 0l0 -100.238846z" clip-rule="nonzero"></path></clipPath><g clip-path="url(#p.0)"><path fill="#000000" fill-opacity="0.0" d="m0 0l100.71654 0l0 100.238846l-100.71654 0z" fill-rule="nonzero"></path><path fill="#666666" d="m100.69037 66.74953l0 0l0 0c0 1.9118958 -0.7594986 3.7454834 -2.111412 5.097389c-1.3519135 1.3519135 -3.185501 2.111412 -5.097389 2.111412l-93.4568 0c-6.635487E-5 0 -1.201462E-4 -5.340576E-5 -1.201462E-4 -1.2207031E-4l1.201462E-4 -14.417477l0 0c0 -6.866455E-5 5.379133E-5 -1.2207031E-4 1.201462E-4 -1.2207031E-4l93.45668 1.2207031E-4l0 0c3.981308 0 7.2088013 3.2274895 7.2088013 7.2087975z" fill-rule="nonzero"></path><path fill="#666666" d="m67.13517 23.496727l16.777596 0l0 0c4.4496994 0 8.717148 1.7676353 11.863556 4.9140453c3.146408 3.146412 4.9140472 7.4138584 4.9140472 11.863554l0 26.4752l-33.5552 0z" fill-rule="nonzero"></path><path fill="#434343" d="m8.413567 77.56273l0 0c0 -5.9719696 5.63369 -10.813202 12.5832 -10.813202l0 0c6.9495087 0 12.5832 4.8412323 12.5832 10.813202l0 0c0 5.971962 -5.633692 10.813202 -12.5832 10.813202l0 0c-6.9495106 0 -12.5832 -4.84124 -12.5832 -10.813202z" fill-rule="nonzero"></path><path stroke="#ffffff" stroke-width="2.0" stroke-linejoin="round" stroke-linecap="butt" d="m8.413567 77.56273l0 0c0 -5.9719696 5.63369 -10.813202 12.5832 -10.813202l0 0c6.9495087 0 12.5832 4.8412323 12.5832 10.813202l0 0c0 5.971962 -5.633692 10.813202 -12.5832 10.813202l0 0c-6.9495106 0 -12.5832 -4.84124 -12.5832 -10.813202z" fill-rule="nonzero"></path><path fill="#434343" d="m67.13517 77.56273l0 0c0 -5.9719696 5.63369 -10.813202 12.583199 -10.813202l0 0c6.9495087 0 12.583199 4.8412323 12.583199 10.813202l0 0c0 5.971962 -5.63369 10.813202 -12.583199 10.813202l0 0c-6.9495087 0 -12.583199 -4.84124 -12.583199 -10.813202z" fill-rule="nonzero"></path><path stroke="#ffffff" stroke-width="2.0" stroke-linejoin="round" stroke-linecap="butt" d="m67.13517 77.56273l0 0c0 -5.9719696 5.63369 -10.813202 12.583199 -10.813202l0 0c6.9495087 0 12.583199 4.8412323 12.583199 10.813202l0 0c0 5.971962 -5.63369 10.813202 -12.583199 10.813202l0 0c-6.9495087 0 -12.583199 -4.84124 -12.583199 -10.813202z" fill-rule="nonzero"></path><path fill="#e69138" d="m0.024766404 9.079128l58.7216 0l0 43.2528l-58.7216 0z" fill-rule="nonzero"></path><path fill="#ffffff" d="m75.523964 37.91433l17.957603 0l0 0c1.9118881 0 3.7454758 0.7594948 5.097389 2.1114082c1.3519135 1.3519096 2.111412 3.1854973 2.111412 5.097389l0 7.2088013l-25.166405 0z" fill-rule="nonzero"></path><path fill="#000000" fill-opacity="0.0" d="m29.385567 9.079128l0 43.244095" fill-rule="nonzero"></path><path stroke="#ffffff" stroke-width="2.0" stroke-linejoin="round" stroke-linecap="butt" d="m29.385567 9.079128l0 43.244095" fill-rule="nonzero"></path><path fill="#000000" fill-opacity="0.0" d="m0.024766404 30.705528l58.708664 0" fill-rule="nonzero"></path><path stroke="#ffffff" stroke-width="2.0" stroke-linejoin="round" stroke-linecap="butt" d="m0.024766404 30.705528l58.708664 0" fill-rule="nonzero"></path><path fill="#000000" fill-opacity="0.0" d="m9.764195 30.229984l0 0c0 -10.701525 9.325282 -19.376825 20.828598 -19.376825l0 0c11.503317 0 20.8286 8.675301 20.8286 19.376825l0 0c0 10.701523 -9.325283 19.376823 -20.8286 19.376823l0 0c-11.503317 0 -20.828598 -8.675301 -20.828598 -19.376823z" fill-rule="nonzero"></path><path stroke="#666666" stroke-width="2.0" stroke-linejoin="round" stroke-linecap="butt" d="m9.764195 30.229984l0 0c0 -10.701525 9.325282 -19.376825 20.828598 -19.376825l0 0c11.503317 0 20.8286 8.675301 20.8286 19.376825l0 0c0 10.701523 -9.325283 19.376823 -20.8286 19.376823l0 0c-11.503317 0 -20.828598 -8.675301 -20.828598 -19.376823z" fill-rule="nonzero"></path><path fill="#666666" d="m15.92068 22.220736l0 0c0 -2.4351978 1.9712439 -4.409315 4.402896 -4.409315l0 0c1.1677208 0 2.2876148 0.46455193 3.1133175 1.2914581c0.82570267 0.8269062 1.2895794 1.9484329 1.2895794 3.117857l0 0c0 2.435196 -1.9712448 4.409315 -4.402897 4.409315l0 0c-2.431652 0 -4.402896 -1.9741192 -4.402896 -4.409315z" fill-rule="nonzero"></path><path fill="#666666" d="m35.14708 22.220736l0 0c0 -2.4351978 1.9712448 -4.409315 4.402897 -4.409315l0 0c1.1677208 0 2.287613 0.46455193 3.1133156 1.2914581c0.8257065 0.8269062 1.2895813 1.9484329 1.2895813 3.117857l0 0c0 2.435196 -1.9712448 4.409315 -4.402897 4.409315l0 0c-2.431652 0 -4.402897 -1.9741192 -4.402897 -4.409315z" fill-rule="nonzero"></path><path fill="#000000" fill-opacity="0.0" d="m18.764647 38.511383l0 0c8.723291 -4.2632637 18.579512 -2.50008 22.014479 3.9381828l-15.794914 7.7193184z" fill-rule="nonzero"></path><path fill="#000000" fill-opacity="0.0" d="m18.764647 38.511383l0 0c8.723291 -4.2632637 18.579512 -2.50008 22.014479 3.9381828" fill-rule="nonzero"></path><path stroke="#666666" stroke-width="2.0" stroke-linejoin="round" stroke-linecap="butt" d="m18.764647 38.511383l0 0c8.723291 -4.2632637 18.579512 -2.50008 22.014479 3.9381828" fill-rule="nonzero"></path><path fill="#000000" fill-opacity="0.0" d="m80.97815 45.242104l0 0c0 -3.741558 3.1243362 -6.7746887 6.9783936 -6.7746887l0 0c1.8507919 0 3.6257706 0.7137604 4.9344788 1.9842606c1.3087006 1.2705002 2.0439224 2.9936714 2.0439224 4.790428l0 0c0 3.741558 -3.1243362 6.7746925 -6.978401 6.7746925l0 0c-3.8540573 0 -6.9783936 -3.0331345 -6.9783936 -6.7746925z" fill-rule="nonzero"></path><path stroke="#666666" stroke-width="1.0" stroke-linejoin="round" stroke-linecap="butt" d="m80.97815 45.242104l0 0c0 -3.741558 3.1243362 -6.7746887 6.9783936 -6.7746887l0 0c1.8507919 0 3.6257706 0.7137604 4.9344788 1.9842606c1.3087006 1.2705002 2.0439224 2.9936714 2.0439224 4.790428l0 0c0 3.741558 -3.1243362 6.7746925 -6.978401 6.7746925l0 0c-3.8540573 0 -6.9783936 -3.0331345 -6.9783936 -6.7746925z" fill-rule="nonzero"></path><path fill="#666666" d="m83.04081 42.441845l0 0c0 -0.85141754 0.66044617 -1.5416222 1.4751434 -1.5416222l0 0c0.39123535 0 0.76644135 0.16241837 1.0430832 0.45153046c0.27664185 0.28910828 0.43206024 0.68122864 0.43206024 1.0900917l0 0c0 0.8514137 -0.66044617 1.5416222 -1.4751434 1.5416222l0 0c-0.81469727 0 -1.4751434 -0.69020844 -1.4751434 -1.5416222z" fill-rule="nonzero"></path><path stroke="#666666" stroke-width="1.0" stroke-linejoin="round" stroke-linecap="butt" d="m83.04081 42.441845l0 0c0 -0.85141754 0.66044617 -1.5416222 1.4751434 -1.5416222l0 0c0.39123535 0 0.76644135 0.16241837 1.0430832 0.45153046c0.27664185 0.28910828 0.43206024 0.68122864 0.43206024 1.0900917l0 0c0 0.8514137 -0.66044617 1.5416222 -1.4751434 1.5416222l0 0c-0.81469727 0 -1.4751434 -0.69020844 -1.4751434 -1.5416222z" fill-rule="nonzero"></path><path fill="#666666" d="m89.482414 42.441845l0 0c0 -0.85141754 0.66043854 -1.5416222 1.4751434 -1.5416222l0 0c0.39122772 0 0.7664337 0.16241837 1.0430832 0.45153046c0.27664185 0.28910828 0.43206024 0.68122864 0.43206024 1.0900917l0 0c0 0.8514137 -0.66044617 1.5416222 -1.4751434 1.5416222l0 0c-0.8147049 0 -1.4751434 -0.69020844 -1.4751434 -1.5416222z" fill-rule="nonzero"></path><path stroke="#666666" stroke-width="1.0" stroke-linejoin="round" stroke-linecap="butt" d="m89.482414 42.441845l0 0c0 -0.85141754 0.66043854 -1.5416222 1.4751434 -1.5416222l0 0c0.39122772 0 0.7664337 0.16241837 1.0430832 0.45153046c0.27664185 0.28910828 0.43206024 0.68122864 0.43206024 1.0900917l0 0c0 0.8514137 -0.66044617 1.5416222 -1.4751434 1.5416222l0 0c-0.8147049 0 -1.4751434 -0.69020844 -1.4751434 -1.5416222z" fill-rule="nonzero"></path><path fill="#000000" fill-opacity="0.0" d="m83.99365 48.137516l0 0c2.9226456 -1.4905586 6.224869 -0.8740959 7.375717 1.3769035l-5.291916 2.6988945z" fill-rule="nonzero"></path><path fill="#000000" fill-opacity="0.0" d="m83.99365 48.137516l0 0c2.9226456 -1.4905586 6.224869 -0.8740959 7.375717 1.3769035" fill-rule="nonzero"></path><path stroke="#666666" stroke-width="1.0" stroke-linejoin="round" stroke-linecap="butt" d="m83.99365 48.137516l0 0c2.9226456 -1.4905586 6.224869 -0.8740959 7.375717 1.3769035" fill-rule="nonzero"></path></g></svg>

